<svg width="32" height="32" viewBox="0 0 32 32" fill="none" xmlns="http://www.w3.org/2000/svg">
<path d="M14.6667 7.99984C16.1394 7.99984 17.3333 6.80593 17.3333 5.33317C17.3333 3.86041 16.1394 2.6665 14.6667 2.6665C13.1939 2.6665 12 3.86041 12 5.33317C12 6.80593 13.1939 7.99984 14.6667 7.99984Z" stroke="#22C55E" stroke-width="2" stroke-linecap="round" stroke-linejoin="round"/>
<path d="M23.9987 13.3333C25.4715 13.3333 26.6654 12.1394 26.6654 10.6667C26.6654 9.19391 25.4715 8 23.9987 8C22.5259 8 21.332 9.19391 21.332 10.6667C21.332 12.1394 22.5259 13.3333 23.9987 13.3333Z" stroke="#22C55E" stroke-width="2" stroke-linecap="round" stroke-linejoin="round"/>
<path d="M26.6667 23.9998C28.1394 23.9998 29.3333 22.8059 29.3333 21.3332C29.3333 19.8604 28.1394 18.6665 26.6667 18.6665C25.1939 18.6665 24 19.8604 24 21.3332C24 22.8059 25.1939 23.9998 26.6667 23.9998Z" stroke="#22C55E" stroke-width="2" stroke-linecap="round" stroke-linejoin="round"/>
<path d="M12.001 13.3335C12.8764 13.3335 13.7434 13.5059 14.5522 13.841C15.361 14.176 16.096 14.6671 16.715 15.2861C17.3341 15.9052 17.8251 16.6401 18.1602 17.4489C18.4952 18.2578 18.6676 19.1247 18.6676 20.0002V24.6668C18.6673 25.7821 18.2675 26.8604 17.5407 27.7064C16.814 28.5523 15.8082 29.11 14.7058 29.2785C13.6033 29.4469 12.4769 29.2149 11.5307 28.6245C10.5845 28.0342 9.88099 27.1245 9.54763 26.0602C8.97874 24.2246 7.77874 23.0224 5.94763 22.4535C4.88388 22.1203 3.97452 21.4174 3.38412 20.4719C2.79371 19.5263 2.56125 18.4007 2.72882 17.2987C2.89638 16.1966 3.45289 15.191 4.29764 14.4636C5.1424 13.7363 6.21959 13.3354 7.3343 13.3335H12.001Z" stroke="#22C55E" stroke-width="2" stroke-linecap="round" stroke-linejoin="round"/>
</svg>
